<svg width="68" height="23" fill="none" xmlns="http://www.w3.org/2000/svg"><g clip-path="url(#clip0_1_1697)" fill="#fff"><path d="M54.045 3.776c1.033 0 1.87-.843 1.87-1.883S55.079.011 54.046.011s-1.87.843-1.87 1.882c0 1.04.837 1.883 1.87 1.883zM59.66 5.63h3.44v2.076h-3.44V5.63zm4.898 0H68v2.076h-3.442V5.63z"/><path fill-rule="evenodd" clip-rule="evenodd" d="M65.08 16.369v-2.14H62.6v2.14c0 2.014-1.624 3.647-3.626 3.647s-3.624-1.633-3.624-3.647h-2.48c0 3.392 2.734 6.142 6.104 6.142 3.371 0 6.104-2.75 6.104-6.142h.001z"/><path fill-rule="evenodd" clip-rule="evenodd" d="M62.146 5.63v5.022c0 .87.702 1.577 1.567 1.577h.23c.866 0 1.567-.706 1.567-1.577V5.63H68v4.881c0 1.285-.33 2.253-.99 2.906-.659.653-1.552.98-2.68.98h-1c-1.127 0-2.02-.327-2.68-.98-.66-.653-.99-1.621-.99-2.906V5.63h2.487z"/><path d="M8.202 8.54c.638.204 1.138.546 1.5 1.028.361.471.542 1.055.542 1.75 0 .985-.383 1.745-1.149 2.28-.755.525-1.861.787-3.319.787H0V3.145h5.457c1.362 0 2.404.263 3.127.787.735.525 1.101 1.237 1.101 2.136a2.71 2.71 0 01-.398 1.461 2.688 2.688 0 01-1.085 1.012zM2.569 5.105v2.65h2.569c.638 0 1.122-.113 1.452-.337.33-.225.495-.557.495-.996 0-.439-.165-.765-.495-.98-.33-.224-.814-.337-1.452-.337H2.569zm3.016 7.322c.68 0 1.191-.112 1.532-.337.35-.225.526-.573.526-1.044 0-.93-.686-1.397-2.058-1.397H2.569v2.778h3.016zm14.53-2.328c0 .032-.016.257-.048.674h-6.494c.117.536.394.958.83 1.269.436.31.979.466 1.627.466.447 0 .84-.065 1.181-.193.351-.14.676-.354.974-.643l1.324 1.446c-.809.93-1.99 1.396-3.542 1.396-.968 0-1.825-.187-2.57-.561-.744-.386-1.318-.916-1.723-1.59-.404-.675-.606-1.44-.606-2.296 0-.846.197-1.606.59-2.28a4.2 4.2 0 011.644-1.59c.702-.385 1.484-.578 2.346-.578.84 0 1.6.182 2.281.546a3.908 3.908 0 011.596 1.574c.393.674.59 1.46.59 2.36zm-4.452-2.585c-.563 0-1.037.16-1.42.482-.383.32-.617.76-.702 1.316h4.229c-.085-.546-.32-.98-.702-1.3-.383-.332-.851-.498-1.405-.498zm5.79-5.041h2.49v11.914h-2.49V2.473zm9.555 3.147c.798 0 1.521.187 2.17.562.66.364 1.175.883 1.548 1.557.372.664.558 1.44.558 2.329 0 .888-.186 1.67-.558 2.344a4.02 4.02 0 01-1.548 1.557 4.359 4.359 0 01-2.17.546c-1.18 0-2.08-.375-2.697-1.124v.996h-2.377V2.473h2.489v4.19c.628-.695 1.49-1.043 2.585-1.043zm-.431 6.84c.638 0 1.16-.214 1.564-.642.415-.44.622-1.023.622-1.75 0-.728-.207-1.306-.622-1.735-.404-.439-.926-.658-1.564-.658s-1.165.22-1.58.658c-.404.429-.606 1.007-.606 1.735 0 .727.202 1.31.606 1.75.415.428.942.642 1.58.642zm14.463-2.361c0 .032-.016.257-.048.674h-6.494c.117.536.394.958.83 1.269.436.31.978.466 1.627.466.447 0 .84-.065 1.181-.193a2.97 2.97 0 00.973-.643l1.325 1.446c-.809.93-1.99 1.396-3.542 1.396-.968 0-1.825-.187-2.57-.561-.744-.386-1.318-.916-1.723-1.59-.404-.675-.606-1.44-.606-2.296 0-.846.197-1.606.59-2.28a4.201 4.201 0 011.644-1.59c.702-.385 1.484-.578 2.346-.578.84 0 1.6.182 2.281.546.68.364 1.213.889 1.596 1.574.393.674.59 1.46.59 2.36zm-4.452-2.585c-.563 0-1.037.16-1.42.482-.383.32-.617.76-.702 1.316h4.229c-.085-.546-.32-.98-.702-1.3-.383-.332-.851-.498-1.405-.498zm8.168-.626a2.776 2.776 0 011.196-.948c.511-.214 1.096-.32 1.756-.32v2.31a8.952 8.952 0 00-.559-.032c-.713 0-1.271.204-1.675.61-.404.396-.607.996-.607 1.799v4.078h-2.489V5.748h2.378v1.14zm6.49 0a2.777 2.777 0 011.197-.948c.51-.214 1.096-.32 1.755-.32v2.31a8.954 8.954 0 00-.558-.032c-.713 0-1.271.204-1.676.61-.404.396-.606.996-.606 1.799v4.078h-2.49V5.748h2.378v1.14z"/></g><defs><clipPath id="clip0_1_1697"><path fill="#fff" d="M0 0h68v22.667H0z"/></clipPath></defs></svg>