<svg width="68" height="60" fill="none" xmlns="http://www.w3.org/2000/svg"><path d="M4 60c10 0 23.333-3.333 23.333-26.667V6.667c0-4.167-2.52-6.724-6.666-6.667H7.333C3.167 0 .667 2.5.667 6.573v20.094c0 4.166 2.5 6.666 6.666 6.666 3.334 0 3.334 0 3.334 3.334V40c0 3.333-3.334 6.667-6.667 6.667-3.333 0-3.333.026-3.333 3.436v6.564C.667 60 .667 60 4 60zm40 0c10 0 23.333-3.333 23.333-26.667V6.667C67.333 2.5 64.81-.057 60.667 0H47.333c-4.166 0-6.666 2.5-6.666 6.573v20.094c0 4.166 2.5 6.666 6.666 6.666h2.5c0 7.5.834 13.334-9.166 13.334v10C40.667 60 40.667 60 44 60z" fill="#D7F0EE"/></svg>