<svg width="154" height="47" fill="none" xmlns="http://www.w3.org/2000/svg"><g clip-path="url(#clip0_1_3018)"><path d="M148.296 46.896H5.704C2.51 46.896 0 44.317 0 41.035V5.87C0 2.588 2.51.009 5.704.009h142.592c3.194 0 5.704 2.579 5.704 5.86v35.166c0 3.282-2.51 5.86-5.704 5.86z" fill="#000"/><path d="M148.296.947c2.624 0 4.791 2.227 4.791 4.923v35.165c0 2.696-2.167 4.923-4.791 4.923H5.704c-2.624 0-4.791-2.227-4.791-4.923V5.87C.913 3.174 3.08.947 5.703.947h142.593zm0-.938H5.704C2.51.009 0 2.705 0 5.869v35.166c0 3.282 2.51 5.86 5.704 5.86h142.592c3.194 0 5.704-2.578 5.704-5.86V5.87c0-3.165-2.51-5.861-5.704-5.861z" fill="#A6A6A6"/><path d="M54.071 11.965c0 .938-.228 1.758-.798 2.344-.685.704-1.484 1.055-2.51 1.055-1.027 0-1.825-.352-2.51-1.055-.684-.703-1.026-1.524-1.026-2.579 0-1.055.342-1.875 1.026-2.578.685-.704 1.483-1.055 2.51-1.055.456 0 .913.117 1.369.351.456.235.798.47 1.026.82l-.57.587c-.456-.586-1.027-.82-1.825-.82-.685 0-1.369.234-1.825.82-.57.469-.799 1.172-.799 1.993 0 .82.228 1.523.799 1.992.57.47 1.14.82 1.825.82.798 0 1.369-.234 1.94-.82.341-.351.57-.82.57-1.406h-2.51v-.938h3.308v.469zm5.247-2.93h-3.08v2.227h2.852v.82h-2.852v2.227h3.08v.938h-3.992V8.214h3.992v.82zm3.765 6.212h-.913V9.034h-1.939v-.82h4.791v.82h-1.94v6.213zm5.247 0V8.214h.913v7.033h-.913zm4.791 0h-.912V9.034h-1.94v-.82h4.678v.82h-1.94v6.213h.114zm10.837-.938c-.684.704-1.483 1.055-2.51 1.055-1.026 0-1.824-.352-2.509-1.055-.684-.703-1.026-1.524-1.026-2.579 0-1.055.342-1.875 1.026-2.578.685-.704 1.483-1.055 2.51-1.055 1.026 0 1.825.351 2.51 1.055.684.703 1.026 1.524 1.026 2.578 0 1.055-.342 1.876-1.027 2.58zm-4.334-.586c.456.469 1.14.82 1.825.82.684 0 1.369-.234 1.825-.82a2.867 2.867 0 00.799-1.993c0-.82-.229-1.523-.799-1.992-.456-.47-1.14-.82-1.825-.82s-1.37.234-1.825.82a2.867 2.867 0 00-.799 1.992c0 .821.228 1.524.799 1.993zm6.616 1.524V8.214h1.027l3.308 5.51v-5.51h.912v7.033h-.912l-3.537-5.744v5.744h-.798zm-8.556 10.315c-2.737 0-4.905 2.11-4.905 5.04 0 2.814 2.168 5.04 4.906 5.04 2.737 0 4.905-2.11 4.905-5.04 0-3.047-2.168-5.04-4.906-5.04zm0 7.97c-1.482 0-2.737-1.289-2.737-3.047 0-1.758 1.255-3.047 2.737-3.047 1.484 0 2.738 1.172 2.738 3.047 0 1.758-1.254 3.048-2.737 3.048zm-10.608-7.97c-2.738 0-4.906 2.11-4.906 5.04 0 2.814 2.168 5.04 4.906 5.04 2.737 0 4.905-2.11 4.905-5.04 0-3.047-2.168-5.04-4.905-5.04zm0 7.97c-1.483 0-2.738-1.289-2.738-3.047 0-1.758 1.255-3.047 2.738-3.047s2.737 1.172 2.737 3.047c0 1.758-1.254 3.048-2.737 3.048zm-12.663-6.446v2.11h4.906c-.114 1.172-.57 2.11-1.141 2.696-.685.703-1.825 1.524-3.765 1.524-3.08 0-5.361-2.462-5.361-5.627 0-3.165 2.395-5.626 5.361-5.626 1.597 0 2.852.703 3.765 1.523l1.483-1.523c-1.255-1.172-2.852-2.11-5.133-2.11-4.107 0-7.643 3.516-7.643 7.736s3.536 7.736 7.643 7.736c2.281 0 3.878-.703 5.247-2.227 1.369-1.406 1.825-3.399 1.825-4.923 0-.469 0-.938-.114-1.29h-7.073zm51.79 1.64c-.456-1.171-1.597-3.164-4.107-3.164-2.51 0-4.563 1.993-4.563 5.04 0 2.814 2.054 5.04 4.792 5.04 2.167 0 3.536-1.406 3.992-2.226l-1.597-1.173c-.57.82-1.255 1.407-2.395 1.407-1.141 0-1.826-.469-2.396-1.524l6.502-2.813-.228-.586zm-6.616 1.642c0-1.876 1.483-2.93 2.509-2.93.799 0 1.597.468 1.826 1.054l-4.335 1.876zm-5.362 4.806h2.168V20.522h-2.168v14.652zm-3.422-8.557c-.57-.586-1.483-1.172-2.624-1.172-2.395 0-4.677 2.227-4.677 5.04s2.168 4.923 4.677 4.923c1.141 0 2.054-.586 2.51-1.172h.114v.703c0 1.876-1.027 2.93-2.624 2.93-1.255 0-2.167-.937-2.395-1.757l-1.825.82c.57 1.29 1.939 2.93 4.334 2.93 2.51 0 4.563-1.523 4.563-5.157v-8.909h-2.053v.82zm-2.51 6.916c-1.483 0-2.737-1.29-2.737-3.048s1.254-3.047 2.737-3.047 2.624 1.289 2.624 3.047c0 1.758-1.14 3.048-2.624 3.048zm27.834-13.011h-5.133v14.652h2.168v-5.51h2.965c2.396 0 4.678-1.758 4.678-4.57 0-2.814-2.282-4.572-4.678-4.572zm.115 7.033h-3.08v-5.04h3.08c1.597 0 2.509 1.406 2.509 2.46-.114 1.29-1.026 2.58-2.509 2.58zm13.118-2.11c-1.597 0-3.194.703-3.764 2.227l1.939.82c.456-.82 1.141-1.055 1.939-1.055 1.141 0 2.168.704 2.282 1.876v.117c-.343-.234-1.255-.586-2.168-.586-2.053 0-4.106 1.172-4.106 3.282 0 1.993 1.711 3.282 3.536 3.282 1.483 0 2.167-.703 2.738-1.406h.114v1.172h2.053v-5.627c-.228-2.578-2.167-4.102-4.563-4.102zm-.228 8.088c-.685 0-1.711-.352-1.711-1.29 0-1.172 1.255-1.523 2.281-1.523.913 0 1.369.234 1.94.468-.229 1.407-1.369 2.345-2.51 2.345zm11.978-7.737l-2.396 6.33h-.114l-2.51-6.33h-2.281l3.764 8.909-2.167 4.923h2.167l5.818-13.832h-2.281zm-19.165 9.378h2.168V20.522h-2.168v14.652z" fill="#fff"/><path d="M11.864 8.8c-.343.352-.457.939-.457 1.642v25.905c0 .703.229 1.29.57 1.641l.115.117L26.237 23.57v-.234L11.864 8.8z" fill="url(#paint0_linear_1_3018)"/><path d="M30.8 28.493l-4.677-4.806v-.352L30.8 18.53l.114.117 5.59 3.283c1.597.937 1.597 2.461 0 3.399L30.8 28.493z" fill="url(#paint1_linear_1_3018)"/><path d="M30.914 28.377l-4.791-4.923-14.26 14.652c.571.586 1.37.586 2.396.117l16.655-9.846z" fill="url(#paint2_linear_1_3018)"/><path d="M30.914 18.531L14.259 8.802c-1.027-.586-1.825-.469-2.395.118l14.259 14.534 4.791-4.923z" fill="url(#paint3_linear_1_3018)"/><path opacity=".2" d="M30.8 28.259L14.26 37.87c-.913.586-1.712.468-2.282 0l-.114.117.114.117c.57.469 1.369.586 2.281 0L30.8 28.26z" fill="#000"/><path opacity=".12" d="M11.864 37.872c-.343-.352-.457-.938-.457-1.641v.117c0 .703.229 1.29.57 1.641v-.117h-.113zm24.64-12.894L30.8 28.26l.114.117 5.59-3.282c.798-.469 1.14-1.055 1.14-1.64 0 .585-.456 1.054-1.14 1.523z" fill="#000"/><path opacity=".25" d="M14.26 8.918L36.503 21.93c.684.468 1.14.937 1.14 1.523 0-.586-.342-1.172-1.14-1.64L14.259 8.8c-1.597-.937-2.852-.234-2.852 1.641v.117c0-1.758 1.255-2.578 2.852-1.64z" fill="#fff"/></g><defs><linearGradient id="paint0_linear_1_3018" x1="24.868" y1="10.219" x2="5.203" y2="29.356" gradientUnits="userSpaceOnUse"><stop stop-color="#00A0FF"/><stop offset=".007" stop-color="#00A1FF"/><stop offset=".26" stop-color="#00BEFF"/><stop offset=".512" stop-color="#00D2FF"/><stop offset=".76" stop-color="#00DFFF"/><stop offset="1" stop-color="#00E3FF"/></linearGradient><linearGradient id="paint1_linear_1_3018" x1="38.596" y1="23.454" x2="10.993" y2="23.454" gradientUnits="userSpaceOnUse"><stop stop-color="#FFE000"/><stop offset=".409" stop-color="#FFBD00"/><stop offset=".775" stop-color="orange"/><stop offset="1" stop-color="#FF9C00"/></linearGradient><linearGradient id="paint2_linear_1_3018" x1="28.321" y1="26.145" x2="1.655" y2="52.097" gradientUnits="userSpaceOnUse"><stop stop-color="#FF3A44"/><stop offset="1" stop-color="#C31162"/></linearGradient><linearGradient id="paint3_linear_1_3018" x1="8.324" y1=".217" x2="20.232" y2="11.806" gradientUnits="userSpaceOnUse"><stop stop-color="#32A071"/><stop offset=".069" stop-color="#2DA771"/><stop offset=".476" stop-color="#15CF74"/><stop offset=".801" stop-color="#06E775"/><stop offset="1" stop-color="#00F076"/></linearGradient><clipPath id="clip0_1_3018"><path fill="#fff" d="M0 0h154v46.904H0z"/></clipPath></defs></svg>