<svg width="154" height="47" fill="none" xmlns="http://www.w3.org/2000/svg"><path d="M153.019 41.366c0 .59-.113 1.175-.333 1.72a4.51 4.51 0 01-.949 1.458 4.373 4.373 0 01-1.42.973c-.531.226-1.1.341-1.675.34H5.399a4.32 4.32 0 01-3.097-1.313 4.56 4.56 0 01-1.286-3.178V5.545a4.567 4.567 0 011.286-3.18 4.326 4.326 0 013.097-1.318h143.242c.575 0 1.144.116 1.675.342a4.367 4.367 0 011.42.975 4.5 4.5 0 01.949 1.46c.22.545.333 1.13.333 1.72l.001 35.822z" fill="#fff"/><path d="M148.642 46.903H5.399a5.328 5.328 0 01-3.814-1.622A5.625 5.625 0 010 41.366V5.546a5.628 5.628 0 011.584-3.918A5.332 5.332 0 015.399.003H148.64a5.333 5.333 0 013.814 1.625 5.632 5.632 0 011.585 3.918v35.82c.002 3.054-2.424 5.537-5.398 5.537z" fill="#A6A6A6"/><path d="M153.019 41.366c0 .59-.113 1.175-.333 1.72a4.51 4.51 0 01-.949 1.458 4.373 4.373 0 01-1.42.973c-.531.226-1.1.341-1.675.34H5.399a4.32 4.32 0 01-3.097-1.313 4.56 4.56 0 01-1.286-3.178V5.545a4.567 4.567 0 011.286-3.18 4.326 4.326 0 013.097-1.318h143.242c.575 0 1.144.116 1.675.342a4.367 4.367 0 011.42.975 4.5 4.5 0 01.949 1.46c.22.545.333 1.13.333 1.72l.001 35.822z" fill="#000"/><path d="M34.396 23.206c-.033-3.78 3.013-5.62 3.152-5.705-1.725-2.584-4.399-2.937-5.338-2.965-2.246-.243-4.424 1.38-5.568 1.38-1.167 0-2.929-1.357-4.827-1.317-2.443.04-4.729 1.492-5.983 3.749-2.587 4.6-.657 11.362 1.822 15.08 1.24 1.824 2.688 3.856 4.584 3.784C24.094 37.135 24.787 36 27.025 36c2.219 0 2.87 1.213 4.803 1.168 1.991-.032 3.245-1.83 4.441-3.668 1.433-2.086 2.009-4.143 2.031-4.249-.045-.016-3.865-1.515-3.904-6.044zM30.743 12.09c.997-1.282 1.68-3.026 1.49-4.796-1.444.066-3.25 1.026-4.29 2.28-.92 1.105-1.742 2.915-1.53 4.618 1.623.125 3.288-.84 4.33-2.102z" fill="#fff"/><path d="M148.642.003H71.917l30.052 46.9h46.673a5.33 5.33 0 003.814-1.624 5.63 5.63 0 001.585-3.917V5.546a5.628 5.628 0 00-1.584-3.918 5.333 5.333 0 00-3.815-1.625z" fill="url(#paint0_linear_1_3008)"/><path d="M61.267 36.952h-2.593l-1.42-4.584h-4.936l-1.353 4.584H48.44l4.892-15.608h3.02l4.914 15.608zm-4.44-6.508l-1.285-4.075c-.136-.417-.392-1.397-.766-2.94h-.046c-.15.663-.391 1.644-.721 2.94l-1.263 4.075h4.08zm16.996.743c0 1.914-.505 3.427-1.518 4.537-.907.989-2.034 1.483-3.377 1.483-1.451 0-2.495-.532-3.128-1.597v5.906h-2.434v-12.12a79.39 79.39 0 00-.09-3.698h2.14l.136 1.784h.046c.811-1.344 2.043-2.016 3.696-2.016 1.293 0 2.371.524 3.235 1.573.862 1.052 1.294 2.434 1.294 4.148zm-2.48.091c0-1.095-.24-1.998-.721-2.71-.526-.74-1.233-1.111-2.119-1.111-.6 0-1.146.206-1.634.613-.488.41-.808.947-.957 1.61a3.35 3.35 0 00-.114.762v1.877c0 .818.245 1.509.733 2.074.49.563 1.124.846 1.905.846.916 0 1.63-.365 2.14-1.089.512-.726.768-1.683.768-2.872zm15.08-.091c0 1.914-.505 3.427-1.518 4.537-.907.989-2.033 1.483-3.378 1.483-1.45 0-2.494-.532-3.128-1.597v5.906h-2.434v-12.12c0-1.201-.03-2.434-.09-3.698h2.14l.136 1.784h.046c.81-1.344 2.042-2.016 3.697-2.016 1.29 0 2.37.524 3.235 1.573.86 1.052 1.295 2.434 1.295 4.148zm-2.48.091c0-1.095-.241-1.998-.723-2.71-.526-.74-1.23-1.111-2.116-1.111-.6 0-1.147.206-1.636.613-.489.41-.808.947-.957 1.61-.074.31-.114.563-.114.762v1.877c0 .818.245 1.509.731 2.074.49.562 1.124.846 1.907.846.918 0 1.632-.365 2.14-1.089.512-.726.768-1.683.768-2.872zm16.569 1.296c0 1.329-.452 2.409-1.35 3.243-.99.91-2.37 1.366-4.14 1.366-1.634 0-2.945-.324-3.933-.972l.562-2.084c1.068.65 2.24.973 3.517.973.918 0 1.631-.213 2.14-.637.51-.424.769-.992.769-1.7 0-.635-.214-1.166-.633-1.599-.421-.431-1.118-.834-2.096-1.203-2.66-1.02-3.991-2.51-3.991-4.47 0-1.282.47-2.33 1.409-3.15.938-.818 2.182-1.228 3.73-1.228 1.383 0 2.535.248 3.45.742l-.611 2.038c-.861-.479-1.833-.718-2.92-.718-.858 0-1.532.217-2.013.649a1.875 1.875 0 00-.611 1.414c0 .616.234 1.127.7 1.528.404.37 1.141.772 2.208 1.204 1.308.541 2.27 1.172 2.885 1.897.62.725.928 1.63.928 2.707zm8.068-5h-2.683v5.464c0 1.39.473 2.083 1.42 2.083.435 0 .796-.037 1.081-.116l.068 1.899c-.48.184-1.111.277-1.893.277-.961 0-1.713-.302-2.255-.904-.54-.603-.812-1.613-.812-3.035V27.57h-1.598v-1.877h1.598v-2.06l2.391-.742v2.802h2.683v1.881zm12.081 3.658c0 1.73-.482 3.15-1.443 4.261-1.006 1.144-2.344 1.714-4.012 1.714-1.61 0-2.889-.548-3.844-1.642-.954-1.097-1.431-2.478-1.431-4.145 0-1.744.493-3.173 1.476-4.283.985-1.112 2.312-1.668 3.98-1.668 1.607 0 2.898.549 3.875 1.644.934 1.063 1.399 2.435 1.399 4.12zm-2.523.058c0-1.031-.217-1.915-.652-2.655-.51-.894-1.241-1.341-2.187-1.341-.975 0-1.723.447-2.232 1.34-.436.74-.653 1.64-.653 2.703 0 1.032.217 1.918.653 2.656.526.894 1.26 1.34 2.211 1.34.931 0 1.66-.456 2.188-1.362.447-.758.672-1.648.672-2.681zm10.438-3.393a4.13 4.13 0 00-.767-.07c-.856 0-1.518.331-1.984.997-.404.587-.608 1.328-.608 2.223v5.905h-2.434v-7.71a80.492 80.492 0 00-.07-3.543h2.12l.089 2.153h.067c.258-.74.662-1.337 1.217-1.784a2.892 2.892 0 011.759-.602c.225 0 .428.016.609.045l.002 2.386zm10.886 2.896c.006.38-.024.76-.089 1.134h-7.302c.027 1.111.381 1.963 1.059 2.55.616.522 1.411.785 2.389.785 1.081 0 2.067-.176 2.954-.531l.382 1.734c-1.037.465-2.261.696-3.673.696-1.699 0-3.032-.514-4.003-1.539-.968-1.026-1.453-2.405-1.453-4.133 0-1.696.451-3.109 1.354-4.236.945-1.203 2.223-1.805 3.83-1.805 1.579 0 2.774.602 3.586 1.805.643.953.966 2.136.966 3.54zm-2.321-.65c.017-.741-.143-1.38-.473-1.921-.421-.697-1.069-1.044-1.938-1.044-.796 0-1.444.339-1.938 1.02-.405.54-.646 1.19-.72 1.944l5.069.002zM51.615 15.826a15.15 15.15 0 01-1.75-.091V8.189a13.05 13.05 0 012.06-.16c2.792 0 4.078 1.411 4.078 3.711 0 2.653-1.519 4.086-4.388 4.086zm.41-6.829c-.378 0-.698.024-.964.08v5.736c.143.024.42.034.808.034 1.829 0 2.87-1.07 2.87-3.073 0-1.786-.942-2.777-2.715-2.777zm7.984 6.887c-1.573 0-2.593-1.207-2.593-2.845 0-1.708 1.041-2.925 2.682-2.925 1.55 0 2.593 1.149 2.593 2.834 0 1.73-1.075 2.936-2.682 2.936zm.046-4.872c-.865 0-1.418.83-1.418 1.992 0 1.138.565 1.969 1.406 1.969.842 0 1.407-.888 1.407-1.993 0-1.126-.554-1.968-1.395-1.968zm11.607-.785l-1.684 5.531H68.88l-.698-2.401a18.596 18.596 0 01-.433-1.787h-.022c-.088.603-.255 1.207-.432 1.787l-.742 2.401h-1.109l-1.584-5.53h1.23l.61 2.629c.143.626.264 1.217.364 1.776h.023c.088-.466.232-1.048.443-1.764l.765-2.64h.975l.732 2.583c.177.627.32 1.241.433 1.822h.032c.077-.57.2-1.173.365-1.822l.654-2.583 1.175-.002zm6.199 5.531h-1.196v-3.176c0-.978-.366-1.468-1.086-1.468-.71 0-1.197.626-1.197 1.355v3.29h-1.196v-3.95c0-.49-.012-1.014-.045-1.583h1.053l.056.854h.033c.322-.591.975-.966 1.707-.966 1.13 0 1.872.887 1.872 2.332l-.001 3.312zm3.3 0h-1.198V7.69h1.197v8.07zm4.362.126c-1.572 0-2.593-1.207-2.593-2.845 0-1.708 1.041-2.925 2.68-2.925 1.552 0 2.593 1.149 2.593 2.834.001 1.73-1.074 2.936-2.68 2.936zm.044-4.872c-.864 0-1.418.83-1.418 1.992 0 1.138.567 1.969 1.406 1.969.842 0 1.406-.888 1.406-1.993.001-1.126-.551-1.968-1.394-1.968zm7.354 4.746l-.087-.636h-.032c-.365.512-.899.762-1.574.762-.965 0-1.65-.694-1.65-1.628 0-1.365 1.152-2.071 3.146-2.071v-.102c0-.729-.375-1.093-1.117-1.093-.531 0-.997.137-1.407.41l-.243-.808c.498-.319 1.119-.478 1.848-.478 1.407 0 2.117.762 2.117 2.288v2.037c0 .558.024.991.078 1.32h-1.08zm-.165-2.754c-1.329 0-1.995.33-1.995 1.115 0 .58.343.864.82.864.609 0 1.175-.477 1.175-1.126v-.853zm6.976 2.754l-.056-.887h-.033c-.344.67-.921 1.013-1.729 1.013-1.298 0-2.259-1.173-2.259-2.823 0-1.73.997-2.948 2.358-2.948.72 0 1.23.25 1.518.751h.024V7.69h1.197v6.579c0 .535.013 1.035.045 1.49h-1.065zm-.177-3.254c0-.774-.499-1.434-1.26-1.434-.888 0-1.43.808-1.43 1.945 0 1.115.563 1.879 1.406 1.879.752 0 1.284-.672 1.284-1.468v-.922zm8.791 3.38c-1.572 0-2.592-1.207-2.592-2.845 0-1.708 1.041-2.925 2.681-2.925 1.551 0 2.592 1.149 2.592 2.834.002 1.73-1.073 2.936-2.681 2.936zm.044-4.872c-.863 0-1.417.83-1.417 1.992 0 1.138.566 1.969 1.406 1.969.842 0 1.406-.888 1.406-1.993.003-1.126-.551-1.968-1.395-1.968zm9.072 4.746h-1.198v-3.176c0-.978-.365-1.468-1.085-1.468-.709 0-1.196.626-1.196 1.355v3.29h-1.197v-3.95c0-.49-.012-1.014-.045-1.583h1.053l.056.854h.033c.321-.591.975-.967 1.705-.967 1.131 0 1.874.887 1.874 2.332v3.313zm8.05-4.609h-1.317v2.686c0 .684.231 1.025.697 1.025.211 0 .388-.023.531-.057l.033.933c-.232.092-.543.137-.928.137-.943 0-1.507-.534-1.507-1.935V11.15h-.786v-.922h.786V9.214l1.174-.365v1.377h1.317v.923zm6.334 4.61h-1.196v-3.153c0-.99-.364-1.49-1.085-1.49-.62 0-1.198.432-1.198 1.308v3.334h-1.195V7.69h1.195v3.323h.024c.377-.603.922-.9 1.619-.9 1.139 0 1.836.91 1.836 2.357v3.29zm6.489-2.47h-3.591c.023 1.047.698 1.638 1.697 1.638a3.95 3.95 0 001.451-.262l.186.854c-.509.228-1.109.341-1.806.341-1.684 0-2.681-1.093-2.681-2.787 0-1.696 1.021-2.971 2.546-2.971 1.376 0 2.239 1.047 2.239 2.63a2.42 2.42 0 01-.041.557zm-1.097-.877c0-.853-.419-1.456-1.184-1.456-.687 0-1.231.614-1.309 1.456h2.493z" fill="#fff"/><defs><linearGradient id="paint0_linear_1_3008" x1="112.978" y1="47.027" x2="112.978" y2="-122.116" gradientUnits="userSpaceOnUse"><stop stop-color="#1A1A1A" stop-opacity=".1"/><stop offset=".123" stop-color="#212121" stop-opacity=".151"/><stop offset=".308" stop-color="#353535" stop-opacity=".227"/><stop offset=".532" stop-color="#575757" stop-opacity=".318"/><stop offset=".783" stop-color="#858585" stop-opacity=".421"/><stop offset="1" stop-color="#B3B3B3" stop-opacity=".51"/></linearGradient></defs></svg>