<svg width="36" height="36" fill="none" xmlns="http://www.w3.org/2000/svg"><path fill-rule="evenodd" clip-rule="evenodd" d="M35.09 23.257V12.786c0-9.566-2.26-11.84-11.826-11.84C-.132.796.79-.156.947 23.24c0 9.564 2.258 11.84 11.825 11.84h7.941c10.165.175 14.632-.524 14.377-11.823zm-6.58 2.045h-2.49c-.942 0-1.226-.765-2.916-2.453-1.476-1.423-2.098-1.6-2.472-1.6-.516 0-.658.142-.658.853v2.24c0 .604-.195.96-1.778.96-2.632 0-5.53-1.6-7.594-4.552-3.094-4.32-3.93-7.59-3.93-8.249 0-.373.143-.711.854-.711h2.49c.64 0 .87.284 1.12.942 1.02 3.346 4.517 8.913 4.57 5.707v-3.662c-.106-1.672-.996-1.814-.996-2.418 0-.267.25-.569.64-.569h3.913c.533 0 .71.267.71.907v4.942c.069 1.185.806.719 1.548-.053 1.796-1.991 3.059-5.085 3.059-5.085.16-.373.444-.711 1.085-.711h2.49c.746 0 .906.373.746.907-.302 1.458-3.343 5.724-3.343 5.742-.267.41-.373.623 0 1.102.717.894 5.94 5.61 2.952 5.76z" fill="#fff"/><path d="M28.51 25.302h-2.49c-.942 0-1.226-.765-2.916-2.453-1.476-1.423-2.098-1.6-2.472-1.6-.516 0-.658.142-.658.853v2.24c0 .604-.195.96-1.778.96-2.632 0-5.53-1.6-7.594-4.552-3.094-4.32-3.93-7.59-3.93-8.249 0-.373.143-.711.854-.711h2.49c.64 0 .87.284 1.12.942 1.02 3.346 4.517 8.913 4.57 5.707v-3.662c-.106-1.672-.996-1.814-.996-2.418 0-.267.25-.569.64-.569h3.913c.533 0 .71.267.71.907v4.942c.069 1.185.806.719 1.548-.053 1.796-1.991 3.059-5.085 3.059-5.085.16-.373.444-.711 1.085-.711h2.49c.746 0 .906.373.746.907-.302 1.458-3.343 5.724-3.343 5.742-.267.41-.373.623 0 1.102.717.894 5.94 5.61 2.952 5.76z" fill="#3A3F3F"/></svg>