<svg width="34" height="34" fill="none" xmlns="http://www.w3.org/2000/svg"><path d="M29.156.286H4.844A4.558 4.558 0 00.286 4.845v24.311a4.558 4.558 0 004.558 4.559h24.312a4.558 4.558 0 004.558-4.559V4.845A4.558 4.558 0 0029.156.286z" fill="#fff"/><path d="M15.973 21.27c-1.62-.169-3.081-.57-4.331-1.546-.156-.122-.315-.24-.458-.38-.547-.526-.602-1.128-.169-1.747.37-.532.992-.675 1.64-.369.124.063.243.136.356.217a7.096 7.096 0 007.87.072c.224-.182.482-.316.76-.395a1.198 1.198 0 011.376.549c.342.558.338 1.101-.083 1.534a6.325 6.325 0 01-2.29 1.48 10.75 10.75 0 01-2.597.583c.133.146.19.217.28.3 1.203 1.21 2.411 2.414 3.61 3.626a1.194 1.194 0 01.27 1.406 1.42 1.42 0 01-1.33.833A1.296 1.296 0 0120.03 27c-.907-.913-1.832-1.81-2.721-2.74-.259-.27-.38-.219-.612.015a147.65 147.65 0 01-2.775 2.786 1.166 1.166 0 01-1.405.253 1.423 1.423 0 01-.82-1.309c.027-.338.184-.653.44-.877a1348.31 1348.31 0 003.567-3.57c.08-.08.155-.166.268-.288z" fill="#1D2020"/><path d="M16.958 17.13a5.288 5.288 0 11.062-10.576 5.288 5.288 0 01-.062 10.575zm2.627-5.294a2.587 2.587 0 10-2.572 2.594 2.577 2.577 0 002.572-2.594z" fill="#1D2020"/></svg>