<svg width="36" height="36" fill="none" xmlns="http://www.w3.org/2000/svg"><g clip-path="url(#clip0_1_3094)"><path d="M18.005 0h-.01C8.072 0 0 8.073 0 18a17.865 17.865 0 003.427 10.55l-2.243 6.687 6.918-2.212A17.843 17.843 0 0018.004 36C27.93 36 36 27.925 36 18S27.93 0 18.005 0z" fill="#fff"/><path d="M28.478 25.418c-.434 1.226-2.158 2.243-3.532 2.54-.94.2-2.17.36-6.305-1.354-5.29-2.192-8.696-7.567-8.962-7.916-.254-.349-2.137-2.846-2.137-5.43 0-2.582 1.312-3.84 1.84-4.38.435-.443 1.152-.646 1.841-.646.223 0 .423.012.603.02.529.023.794.055 1.143.89.434 1.046 1.492 3.629 1.618 3.894.128.266.256.626.076.974-.168.36-.317.52-.582.826-.266.306-.518.54-.784.869-.242.285-.517.591-.211 1.12.306.518 1.364 2.243 2.92 3.63 2.01 1.788 3.639 2.36 4.221 2.603.435.18.952.137 1.27-.2.402-.435.9-1.155 1.406-1.864.36-.508.814-.571 1.291-.391.486.169 3.058 1.44 3.587 1.703.529.266.877.392 1.006.614.126.223.126 1.27-.309 2.498z" fill="#1D2020"/></g><defs><clipPath id="clip0_1_3094"><path fill="#fff" d="M0 0h36v36H0z"/></clipPath></defs></svg>