<svg width="36" height="36" fill="none" xmlns="http://www.w3.org/2000/svg"><g clip-path="url(#clip0_1_3090)"><path d="M36 18c0-9.941-8.059-18-18-18S0 8.059 0 18s8.059 18 18 18 18-8.059 18-18z" fill="#419FD9"/><path d="M36 18c0-9.941-8.059-18-18-18S0 8.059 0 18s8.059 18 18 18 18-8.059 18-18z" fill="#fff"/><path d="M8.09 17.603c5.235-2.328 8.725-3.863 10.472-4.605 4.986-2.118 6.023-2.486 6.698-2.498.148-.002.48.035.696.213.181.15.231.354.255.497.024.143.054.468.03.722-.27 2.899-1.44 9.933-2.034 13.18-.252 1.374-.747 1.835-1.227 1.88-1.043.098-1.835-.704-2.845-1.38-1.58-1.057-2.473-1.716-4.007-2.748-1.773-1.193-.623-1.848.387-2.92.264-.28 4.859-4.547 4.948-4.934.01-.048.021-.229-.084-.324-.105-.095-.26-.063-.372-.037-.158.037-2.683 1.74-7.574 5.111-.716.503-1.365.748-1.947.735-.64-.014-1.874-.37-2.79-.675-1.125-.373-2.02-.57-1.941-1.204.04-.33.486-.668 1.336-1.013z" fill="#1D2020"/></g><defs><clipPath id="clip0_1_3090"><path fill="#fff" d="M0 0h36v36H0z"/></clipPath></defs></svg>