<svg width="34" height="34" fill="none" xmlns="http://www.w3.org/2000/svg"><path d="M32.978 16.26h.008a.729.729 0 00.727-.796A16.759 16.759 0 0018.541.288a.73.73 0 00-.796.736c.127 10.71 1.54 15.086 15.233 15.236zm0 1.48c-13.694.15-15.106 4.526-15.233 15.236a.73.73 0 00.796.736 16.757 16.757 0 0015.172-15.176.73.73 0 00-.19-.56.77.77 0 00-.545-.236zM15.412.292A16.766 16.766 0 00.29 15.465a.729.729 0 00.727.796h.009c13.649-.157 15.058-4.531 15.186-15.234a.732.732 0 00-.799-.735zM1.024 17.74c-.227-.025-.405.083-.544.235a.732.732 0 00-.191.56 16.766 16.766 0 0015.123 15.174.731.731 0 00.798-.736C16.083 22.27 14.675 17.896 1.025 17.74z" fill="#fff"/></svg>