<svg width="36" height="36" fill="none" xmlns="http://www.w3.org/2000/svg"><path d="M11.388 24.131v-9.773h-2.26v-2.505h5.378v12.278h-3.118zm14.835-9.108c0 1.069-.578 2.015-1.541 2.54 1.349.56 2.19 1.734 2.19 3.1 0 2.207-1.962 3.608-5.027 3.608-3.066 0-5.027-1.383-5.027-3.555 0-1.402.91-2.593 2.33-3.153-1.034-.578-1.7-1.559-1.7-2.627 0-1.962 1.717-3.206 4.379-3.206 2.697 0 4.396 1.28 4.396 3.293zm-6.463 5.378c0 1.033.736 1.611 2.084 1.611 1.35 0 2.102-.56 2.102-1.611 0-1.016-.753-1.594-2.102-1.594-1.348 0-2.084.578-2.084 1.594zm.316-5.203c0 .876.63 1.367 1.768 1.367 1.139 0 1.77-.49 1.77-1.367 0-.91-.631-1.418-1.77-1.418-1.138 0-1.768.508-1.768 1.418z" fill="#fff"/><path d="M32.06 13.238A14.8 14.8 0 0132.84 18c0 8.183-6.657 14.84-14.84 14.84S3.16 26.183 3.16 18 9.817 3.16 18 3.16c1.632 0 3.232.262 4.762.781V.638A17.978 17.978 0 0018 0C8.075 0 0 8.075 0 18s8.075 18 18 18 18-8.075 18-18c0-1.62-.215-3.217-.638-4.762h-3.303z" fill="#fff"/><path d="M31.161 4.828V1.377H28.68v3.451h-3.43V7.31h3.43v3.451h2.482V7.31h3.451V4.828h-3.45z" fill="#fff"/></svg>