<svg width="160" height="57" fill="none" xmlns="http://www.w3.org/2000/svg"><g clip-path="url(#clip0_1_2942)" fill="#fff"><path d="M87.736 31.992v4.61h7.189v1.646h-9.328v-6.255h2.14zm-2.14-3.402v-5.597h9v1.646h-6.86v3.951h-2.14zm12.127-5.378c1.317-.165 2.853-.33 4.554-.33 3.072 0 5.268.66 6.749 1.921 1.481 1.262 2.359 3.018 2.359 5.488 0 2.524-.823 4.554-2.414 5.926-1.536 1.427-4.115 2.195-7.352 2.195-1.537 0-2.799-.055-3.896-.164V23.212zm2.195 13.499c.548.11 1.317.11 2.194.11 4.609 0 7.079-2.36 7.079-6.475 0-3.622-2.195-5.927-6.749-5.927-1.098 0-1.976.11-2.524.22V36.71zm16.405-13.718v15.31h-2.139v-15.31h2.139zm21.949 10.481l-1.701 4.829h-2.195l5.651-15.31h2.579l5.652 15.31h-2.304l-1.756-4.829h-5.926zm5.486-1.536l-1.646-4.39c-.384-.988-.603-1.92-.877-2.799h-.055c-.275.933-.494 1.866-.824 2.744l-1.646 4.445h5.048zm6.969-8.945h2.14v13.664H160v1.646h-9.273v-15.31zM13.717 37.918H7.078V30.84H0V24.2h7.078v-7.08h6.64v7.08h7.078v6.64h-7.079v7.078z"/><path d="M40.384 29.852c0-.548-.384-.823-.768-.823-.274 0-1.207-.055-1.207-.055-2.03-.439-1.646-3.896-1.646-3.896 1.92-11.798-2.36-23.87-13.17-25.022C21.62-.11 15.31-.328 11.359 6.092h-.055c-.22-.055-.549 0-.878.165L8.56 7.738c-.33.33-.33.768 0 1.153l1.152 1.152c.384.274.878.33 1.152 0l1.262-2.195c.22-.494.22-.933 0-1.152l-.055-.055c3.073-4.06 8.176-5.817 11.03-5.378C38.463 3.074 37.256 22.5 34.293 29.468c-3.073 9.11-16.406 21.346-20.467 23.376l-.055.055-.055-.055c-.22-.11-.548-.11-.932 0l-2.36.878c-.384.22-.384.714-.164 1.153l.932 1.317c.33.384.769.439 1.153.164l1.755-1.7c.275-.33.385-.604.33-.879v-.055c9.602-6.255 15.308-13.773 18.71-19.26 0 0 1.701-2.415 5.432-2.415 0 0 .824 0 1.208-.055.384-.054.768-.493.768-.932v-1.208h-.165z"/><path d="M39.89 31.28h8.56l5.267 20.523 9.657-37.534 8.34 26.779 5.652-17.121 2.744 7.188 12.51.055v-1.7h-10.7l-4.718-13.664-5.433 16.736-8.395-27.053-9.657 37.808-3.456-13.663H39.89v1.646zm-22.88 6.638h-6.64V30.84H3.292V24.2h7.078v-7.08h6.64v7.08h7.078v6.64h-7.079v7.078zm105.733-.218c1.263.878 2.854 1.372 4.5 1.372 1.152 0 2.634-.384 3.292-.713.658-.33 1.591-.878 1.591-.878l.055-2.25c-.439.549-.988.988-1.591 1.372a6.548 6.548 0 01-3.292.878c-3.567 0-6.475-2.909-6.475-6.475 0-3.567 2.908-6.476 6.475-6.476.219 0 .438 0 .658.055h.11l1.92 3.018c.11.22.44.275.604.165l.384-.274.823 1.207c.11.165.275.165.439.11l.494-.33c.164-.11.164-.274.109-.439l-.767-1.262.383-.274c.22-.11.275-.439.165-.604l-4.06-6.365c-.22-.33-.714-.439-1.043-.22l-.219-.384c-.11-.22-.439-.274-.659-.164l-.549.329c-.219.11-.274.439-.164.659l.274.384c-.329.22-.439.713-.219 1.042l1.097 1.701h-.109c-4.28.22-7.627 3.732-7.627 8.067 0 2.36.987 4.444 2.578 5.926l.823.823z"/><path d="M128.285 21.238l3.293 5.213c.055.055.164.11.219.055l.165-.11c.055-.055.11-.164.055-.22l-3.292-5.212-.44.274zm.11-.823l-.274-.439c-.055-.055-.165-.11-.22-.055l-.165.11c-.054.055-.109.165-.054.22l.274.438.439-.274zm-6.474 10.591a5.41 5.41 0 005.432 5.433 5.421 5.421 0 004.938-3.128c.054-.055.054-.11.109-.165-5.321 1.482-5.706-3.512-10.315-3.402-.109.33-.164.823-.164 1.262zm3.566 3.567c0-.549.439-.933.933-.933.549 0 .933.439.933.933a.925.925 0 01-.933.933.925.925 0 01-.933-.933zm-2.634-3.183c0-.384.275-.658.659-.658s.658.274.658.658a.634.634 0 01-.658.659.634.634 0 01-.659-.659z"/><path d="M130.535 32.377a.713.713 0 100-1.426.713.713 0 000 1.426zm-2.853-1.865a.384.384 0 100-.768.384.384 0 000 .768zm-.329-2.635a.438.438 0 100-.877.438.438 0 000 .877zm-2.579.988a.714.714 0 10-.001-1.427.714.714 0 00.001 1.427zM74.732 42.692h-2.36v-.768h5.707v.768h-2.36v6.256h-.987v-6.256zm9.383 2.963h-3.018v2.524h3.347v.769H80.11v-7.024h4.17v.768h-3.183v2.25h3.018v.713zm8.175 3.074c-.383.164-1.097.329-2.03.329-2.194 0-3.84-1.262-3.84-3.567 0-2.195 1.646-3.676 4.06-3.676.988 0 1.591.164 1.81.329l-.219.768c-.384-.165-.933-.274-1.536-.274-1.81 0-3.018 1.042-3.018 2.908 0 1.701 1.098 2.853 2.963 2.853.603 0 1.207-.11 1.646-.274l.164.604zm3.403-6.805v2.963h3.73v-2.963h.988v7.024h-.987v-3.293h-3.731v3.293h-.988v-7.024h.988zm7.627 7.024v-7.024h1.097l2.469 3.567c.549.823 1.043 1.59 1.372 2.304-.11-.933-.11-1.81-.11-2.908v-2.963h.933v7.024h-.988l-2.469-3.567a17.953 17.953 0 01-1.426-2.36h-.055c.055.878.055 1.756.055 2.909v3.018h-.878zm15.363-3.568c0 2.415-1.591 3.732-3.567 3.732-2.03 0-3.457-1.427-3.457-3.567 0-2.25 1.537-3.676 3.567-3.676 2.086-.055 3.457 1.426 3.457 3.512zm-6.035.11c0 1.482.877 2.854 2.468 2.854 1.592 0 2.47-1.317 2.47-2.909 0-1.371-.823-2.853-2.47-2.853-1.646-.055-2.468 1.372-2.468 2.908zm8.449-3.566h.988v6.255h3.293v.769h-4.281v-7.024zm12.73 3.456c0 2.415-1.591 3.732-3.566 3.732-2.031 0-3.457-1.427-3.457-3.567 0-2.25 1.536-3.676 3.567-3.676 2.084-.055 3.456 1.426 3.456 3.512zm-5.981.11c0 1.482.879 2.854 2.47 2.854 1.591 0 2.468-1.317 2.468-2.909 0-1.371-.822-2.853-2.468-2.853-1.646-.055-2.47 1.372-2.47 2.908zm14.321 3.183c-.439.165-1.317.385-2.359.385-1.153 0-2.14-.275-2.908-.933-.659-.604-1.098-1.537-1.098-2.634 0-2.085 1.591-3.622 4.171-3.622.877 0 1.591.165 1.92.33l-.22.768c-.438-.165-.932-.33-1.7-.33-1.866 0-3.128 1.043-3.128 2.854 0 1.81 1.207 2.853 2.963 2.853.658 0 1.097-.11 1.317-.164v-2.086h-1.591v-.713h2.523v3.292h.11zm3.677-6.749v7.024h-.988v-7.024h.988zm6.913 3.731h-3.018v2.524h3.347v.769h-4.334v-7.024h4.17v.768h-3.183v2.25h3.018v.713zm2.634 2.195c.439.275 1.097.44 1.811.44 1.042 0 1.591-.494 1.591-1.208 0-.658-.439-1.042-1.481-1.371-1.263-.385-2.031-.988-2.031-1.976 0-1.097.988-1.92 2.524-1.92.769 0 1.372.164 1.701.329l-.274.768c-.274-.11-.768-.33-1.482-.33-1.042 0-1.481.55-1.481 1.043 0 .659.494.988 1.536 1.372 1.317.44 1.976 1.043 1.976 2.085 0 1.098-.878 2.03-2.689 2.03-.768 0-1.536-.219-1.975-.438l.274-.824z"/></g><defs><clipPath id="clip0_1_2942"><path fill="#fff" d="M0 0h160v57H0z"/></clipPath></defs></svg>