<svg width="102" height="37" fill="none" xmlns="http://www.w3.org/2000/svg"><g clip-path="url(#clip0_1_2499)"><path d="M55.877 20.425v2.942h4.578v1.051h-5.941v-3.993h1.362zm-1.363-2.172V14.68h5.73v1.05h-4.367v2.523h-1.363zm7.723-3.434c.838-.106 1.817-.21 2.9-.21 1.957 0 3.355.42 4.298 1.225.944.806 1.503 1.927 1.503 3.503 0 1.612-.525 2.908-1.538 3.784-.978.91-2.62 1.4-4.682 1.4a24.95 24.95 0 01-2.481-.104v-9.598zm1.397 8.617c.35.07.84.07 1.398.07 2.936 0 4.508-1.506 4.508-4.134 0-2.311-1.398-3.783-4.298-3.783-.7 0-1.258.07-1.608.14v7.707zm10.449-8.756v9.773H72.72V14.68h1.363zm13.978 6.69l-1.083 3.083H85.58l3.6-9.774h1.641l3.6 9.774h-1.468l-1.118-3.083h-3.774zm3.494-.98l-1.048-2.803c-.244-.63-.384-1.226-.559-1.787h-.035c-.175.596-.314 1.191-.524 1.752l-1.048 2.837h3.214zm4.438-5.71h1.363v8.722h4.543v1.051h-5.906V14.68zM8.736 24.207H4.508v-4.519H0V15.45h4.508v-4.52h4.228v4.52h4.508v4.238H8.736v4.52z" fill="#3E989A"/><path d="M25.72 19.057c0-.35-.245-.525-.49-.525-.175 0-.768-.035-.768-.035-1.293-.28-1.049-2.488-1.049-2.488C24.636 8.478 21.91.771 15.026.036 13.768-.07 9.75-.21 7.234 3.889h-.035c-.14-.035-.35 0-.56.105l-1.187.946c-.21.21-.21.49 0 .736l.733.735c.245.175.56.21.734 0l.804-1.401c.14-.315.14-.596 0-.736l-.035-.035C9.645 1.647 12.895.526 14.712.806c9.784 1.156 9.016 13.557 7.129 18.006-1.957 5.815-10.449 13.626-13.035 14.923l-.035.035-.035-.035c-.14-.07-.35-.07-.594 0l-1.502.56c-.245.14-.245.456-.105.736l.594.84c.21.246.49.28.734.106L8.98 34.89c.175-.21.245-.386.21-.56v-.036c6.115-3.993 9.75-8.792 11.916-12.295 0 0 1.083-1.542 3.46-1.542 0 0 .523 0 .768-.035s.49-.315.49-.595v-.771h-.105z" fill="#3E989A"/><path d="M25 20.464h5.451l3.355 13.101 6.15-23.96L45.268 26.7l3.599-10.93 1.748 4.589 7.967.035v-1.086h-6.814l-3.005-8.722-3.46 10.684L39.956 4l-6.15 24.136-2.201-8.723H25v1.051z" fill="#3E989A"/><path d="M10.833 24.207H6.605v-4.519H2.097V15.45h4.508v-4.52h4.228v4.52h4.508v4.238h-4.508v4.52z" fill="#283D71"/><path d="M78.17 24.068c.805.56 1.818.875 2.866.875.734 0 1.678-.245 2.097-.455.42-.21 1.014-.56 1.014-.56l.035-1.437c-.28.35-.63.63-1.014.876-.594.35-1.328.56-2.097.56-2.271 0-4.123-1.856-4.123-4.133S78.8 15.66 81.07 15.66c.14 0 .28 0 .42.035h.07l1.222 1.927c.07.14.28.175.385.105l.245-.175.524.77c.07.106.175.106.28.07l.314-.21c.105-.07.105-.174.07-.28l-.49-.805.245-.175c.14-.07.175-.28.105-.386l-2.586-4.063a.497.497 0 00-.664-.14l-.14-.246c-.07-.14-.28-.175-.42-.105l-.349.21c-.139.07-.174.28-.105.42l.175.246a.5.5 0 00-.14.666l.7 1.086h-.07c-2.726.14-4.858 2.382-4.858 5.149 0 1.506.63 2.837 1.643 3.783l.524.526z" fill="#3E989A"/><path d="M81.7 13.558l2.097 3.328c.035.035.104.07.14.035l.104-.07c.035-.035.07-.105.035-.14l-2.096-3.328-.28.175zm.07-.525l-.174-.28c-.035-.035-.105-.07-.14-.035l-.105.07c-.035.035-.07.105-.035.14l.175.28.28-.175z" fill="#fff"/><path d="M77.647 19.794a3.449 3.449 0 003.459 3.468 3.451 3.451 0 003.145-1.997c.035-.035.035-.07.07-.105-3.39.946-3.635-2.242-6.57-2.172-.07.21-.104.525-.104.806zm2.27 2.277c0-.35.28-.596.595-.596.35 0 .594.28.594.596a.59.59 0 01-.594.595.59.59 0 01-.594-.595zm-1.677-2.032c0-.245.175-.42.42-.42.244 0 .42.175.42.42s-.176.42-.42.42a.404.404 0 01-.42-.42z" fill="#283D71"/><path d="M83.133 20.67a.455.455 0 100-.91.455.455 0 000 .91zm-1.817-1.191a.245.245 0 100-.49.245.245 0 000 .49zm-.21-1.682a.28.28 0 100-.56.28.28 0 000 .56zm-1.642.631a.455.455 0 10-.002-.91.455.455 0 00.002.91z" fill="#283D71"/><path d="M47.594 27.255h-1.502v-.49h3.634v.49h-1.503v3.994h-.629v-3.994zm5.976 1.892h-1.922v1.612h2.131v.49h-2.76v-4.484h2.655v.49h-2.026v1.437h1.922v.455zm5.207 1.962c-.245.105-.7.21-1.293.21-1.398 0-2.446-.806-2.446-2.277 0-1.401 1.048-2.347 2.586-2.347.629 0 1.013.105 1.153.21l-.14.49a2.58 2.58 0 00-.979-.175c-1.152 0-1.921.666-1.921 1.857 0 1.086.699 1.821 1.887 1.821.384 0 .768-.07 1.048-.175l.105.386zm2.166-4.344v1.892h2.376v-1.892h.629v4.484h-.629v-2.102h-2.376v2.102h-.63v-4.484h.63zm4.857 4.484v-4.484h.7l1.572 2.277c.35.525.664 1.016.874 1.471-.07-.595-.07-1.156-.07-1.856v-1.892h.594v4.484h-.63l-1.572-2.277c-.35-.49-.664-1.016-.908-1.506h-.035c.035.56.035 1.12.035 1.856v1.927h-.56zm9.785-2.277c0 1.541-1.013 2.382-2.272 2.382-1.292 0-2.201-.91-2.201-2.277 0-1.436.979-2.347 2.271-2.347 1.329-.035 2.202.91 2.202 2.242zm-3.844.07c0 .946.559 1.821 1.572 1.821 1.014 0 1.573-.84 1.573-1.856 0-.876-.524-1.822-1.573-1.822-1.048-.035-1.572.876-1.572 1.857zm5.382-2.277h.629v3.993h2.097v.49h-2.726v-4.483zm8.107 2.207c0 1.541-1.014 2.382-2.272 2.382-1.293 0-2.201-.91-2.201-2.277 0-1.436.978-2.347 2.271-2.347 1.328-.035 2.202.91 2.202 2.242zm-3.81.07c0 .946.56 1.821 1.573 1.821 1.014 0 1.572-.84 1.572-1.856 0-.876-.523-1.822-1.572-1.822-1.048-.035-1.572.876-1.572 1.857zm9.121 2.032a4.55 4.55 0 01-1.502.245c-.734 0-1.363-.175-1.853-.596-.419-.385-.699-.98-.699-1.681 0-1.331 1.014-2.312 2.657-2.312.558 0 1.013.105 1.223.21l-.14.49a2.819 2.819 0 00-1.084-.21c-1.188 0-1.992.666-1.992 1.822 0 1.156.77 1.821 1.888 1.821.419 0 .698-.07.838-.105v-1.33h-1.013v-.456h1.607v2.102h.07zm2.342-4.309v4.483h-.63v-4.483h.63zm4.403 2.382h-1.922v1.611h2.131v.49h-2.76v-4.483h2.655v.49h-2.026v1.436h1.922v.456zm1.677 1.401c.28.175.7.28 1.154.28.663 0 1.013-.315 1.013-.77 0-.42-.28-.666-.943-.876-.804-.245-1.294-.63-1.294-1.261 0-.7.63-1.226 1.608-1.226.489 0 .874.105 1.083.21l-.175.49c-.174-.07-.489-.21-.943-.21-.664 0-.943.35-.943.666 0 .42.314.63.978.876.839.28 1.258.665 1.258 1.33 0 .701-.559 1.297-1.712 1.297-.49 0-.979-.14-1.258-.28l.174-.526z" fill="#2D2D2D"/></g><defs><clipPath id="clip0_1_2499"><path fill="#fff" d="M0 0h101.899v36.78H0z"/></clipPath></defs></svg>