<?xml version="1.0" encoding="UTF-8"?><!DOCTYPE svg PUBLIC "-//W3C//DTD SVG 1.1//EN" "http://www.w3.org/Graphics/SVG/1.1/DTD/svg11.dtd"><svg xmlns="http://www.w3.org/2000/svg" xmlns:xlink="http://www.w3.org/1999/xlink"><defs>
<clipPath id="clip0_1_3090">
<rect width="36" height="36" fill="white"/>
</clipPath>

<clipPath id="clip0_1_3094">
<rect width="36" height="36" fill="white"/>
</clipPath>
</defs><symbol id="icon-18" viewBox="0 0 36 36"><g fill="none">
<path d="M11.3882 24.1315V14.3577H9.12878V11.8531H14.506V24.1315H11.3882ZM26.2233 15.0233C26.2233 16.0917 25.6453 17.0375 24.682 17.563C26.0305 18.1234 26.8714 19.297 26.8714 20.6632C26.8714 22.8701 24.9096 24.2714 21.8445 24.2714C18.7793 24.2714 16.8176 22.8876 16.8176 20.7158C16.8176 19.3145 17.7284 18.1234 19.1471 17.563C18.1137 16.9849 17.4481 16.0042 17.4481 14.9358C17.4481 12.9739 19.1647 11.7305 21.827 11.7305C24.5243 11.7305 26.2233 13.0091 26.2233 15.0233ZM19.7601 20.4006C19.7601 21.434 20.4958 22.012 21.8445 22.012C23.1931 22.012 23.9463 21.4517 23.9463 20.4006C23.9463 19.3848 23.1931 18.8066 21.8445 18.8066C20.4957 18.8066 19.7601 19.3847 19.7601 20.4006ZM20.0755 15.1984C20.0755 16.0744 20.706 16.5646 21.8445 16.5646C22.983 16.5646 23.6135 16.0743 23.6135 15.1984C23.6135 14.2879 22.983 13.7798 21.8445 13.7798C20.7059 13.7798 20.0755 14.2879 20.0755 15.1984Z" fill="white"/>
<path d="M32.0594 13.2382C32.5777 14.768 32.8407 16.3681 32.8407 18.0001C32.8407 26.183 26.1833 32.8404 18.0002 32.8404C9.81712 32.8404 3.1596 26.183 3.1596 18.0001C3.1596 9.81688 9.81701 3.15969 18.0001 3.15969C19.6322 3.15969 21.2323 3.42241 22.7619 3.94096V0.638418C21.2169 0.214886 19.6212 0 18.0002 0C8.07505 0 0.000244141 8.07481 0.000244141 18.0001C0.000244141 27.9253 8.07505 36.0001 18.0002 36.0001C27.9253 36.0001 36 27.9253 36 18.0001C36 16.3792 35.7852 14.7833 35.3617 13.2382H32.0594Z" fill="white"/>
<path d="M31.1611 4.82837V1.37695H28.6793V4.82837H25.2485V7.31001H28.6793V10.7613H31.1611V7.31001H34.6123V4.82837H31.1611Z" fill="white"/>
</g></symbol><symbol id="icon-arrow-btn" viewBox="0 0 12 12"><g fill="none">
<path d="M1 1H11M11 1V11M11 1L1 11" stroke="white" stroke-linecap="round" stroke-linejoin="round"/>
</g></symbol><symbol id="icon-call" viewBox="0 0 22 22"><g fill="none">
<path d="M21.0001 15.9201V18.9201C21.0012 19.1986 20.9441 19.4743 20.8326 19.7294C20.721 19.9846 20.5574 20.2137 20.3521 20.402C20.1469 20.5902 19.9046 20.7336 19.6408 20.8228C19.377 20.912 19.0974 20.9452 18.8201 20.9201C15.7429 20.5857 12.7871 19.5342 10.1901 17.8501C7.77388 16.3148 5.72539 14.2663 4.19006 11.8501C2.50003 9.2413 1.4483 6.27109 1.12006 3.1801C1.09507 2.90356 1.12793 2.62486 1.21656 2.36172C1.30518 2.09859 1.44763 1.85679 1.63482 1.65172C1.82202 1.44665 2.04986 1.28281 2.30385 1.17062C2.55783 1.05843 2.8324 1.00036 3.11006 1.0001H6.11006C6.59536 0.995321 7.06585 1.16718 7.43382 1.48363C7.80179 1.80008 8.04213 2.23954 8.11005 2.7201C8.23668 3.68016 8.47151 4.62282 8.81006 5.5301C8.9446 5.88802 8.97372 6.27701 8.89396 6.65098C8.81421 7.02494 8.62892 7.36821 8.36005 7.6401L7.09006 8.9101C8.51361 11.4136 10.5865 13.4865 13.0901 14.9101L14.3601 13.6401C14.6319 13.3712 14.9752 13.1859 15.3492 13.1062C15.7231 13.0264 16.1121 13.0556 16.4701 13.1901C17.3773 13.5286 18.32 13.7635 19.2801 13.8901C19.7658 13.9586 20.2095 14.2033 20.5266 14.5776C20.8437 14.9519 21.0122 15.4297 21.0001 15.9201Z" stroke="#F5F6F6" stroke-linecap="round" stroke-linejoin="round"/>
</g></symbol><symbol id="icon-dzen" viewBox="0 0 34 34"><g fill="none">
<path d="M32.9784 16.2602C32.9813 16.2602 32.9835 16.2602 32.9864 16.2602C33.19 16.2602 33.3842 16.1748 33.5221 16.0252C33.6622 15.8734 33.7315 15.6698 33.7133 15.464C32.9806 7.40517 26.6002 1.02263 18.5407 0.288485C18.3364 0.27243 18.1306 0.338839 17.9788 0.479683C17.827 0.619799 17.7423 0.817565 17.7445 1.02409C17.8715 11.7341 19.2843 16.1105 32.9784 16.2602ZM32.9784 17.7401C19.2843 17.8897 17.8722 22.2661 17.7453 32.9762C17.7431 33.1827 17.8277 33.3805 17.9795 33.5206C18.1152 33.6454 18.2926 33.7147 18.475 33.7147C18.4969 33.7147 18.5195 33.714 18.5414 33.7118C26.601 32.9776 32.9813 26.5958 33.7133 18.5363C33.7315 18.3305 33.6629 18.1269 33.5221 17.9751C33.3812 17.8233 33.1849 17.7481 32.9784 17.7401ZM15.4122 0.292133C7.37819 1.04744 1.01828 7.42852 0.289244 15.4654C0.271 15.6712 0.339598 15.8748 0.480443 16.0266C0.618369 16.1762 0.813216 16.2609 1.01609 16.2609C1.01901 16.2609 1.02193 16.2609 1.02485 16.2609C14.6737 16.104 16.0828 11.7298 16.2113 1.02701C16.2135 0.820484 16.1281 0.621988 15.9763 0.481873C15.8231 0.341758 15.618 0.27316 15.4122 0.292133ZM1.02412 17.7394C0.797162 17.7138 0.619099 17.8219 0.479713 17.9736C0.339598 18.1254 0.27027 18.329 0.288514 18.5348C1.01755 26.5718 7.37819 32.9528 15.4122 33.7081C15.4348 33.7103 15.4582 33.7111 15.4808 33.7111C15.6632 33.7111 15.8398 33.6425 15.9756 33.5177C16.1274 33.3775 16.2127 33.1791 16.2106 32.9725C16.0821 22.2705 14.6737 17.8963 1.02412 17.7394Z" fill="white"/>
</g></symbol><symbol id="icon-ok" viewBox="0 0 34 34"><g fill="none">
<path d="M29.1559 0.286133H4.84421C2.32665 0.286133 0.285767 2.32702 0.285767 4.84457V29.1563C0.285767 31.6738 2.32665 33.7147 4.84421 33.7147H29.1559C31.6735 33.7147 33.7143 31.6738 33.7143 29.1563V4.84457C33.7143 2.32702 31.6735 0.286133 29.1559 0.286133Z" fill="white"/>
<path d="M15.9725 21.27C14.3524 21.101 12.8918 20.7002 11.642 19.724C11.4863 19.6024 11.3267 19.4846 11.1843 19.3441C10.6373 18.818 10.5822 18.2159 11.0152 17.5967C11.3856 17.0649 12.0067 16.9224 12.6544 17.2282C12.7787 17.2912 12.8981 17.3636 13.0114 17.4447C14.1696 18.2319 15.5348 18.6587 16.935 18.6716C18.3353 18.6844 19.708 18.2827 20.8805 17.5169C21.1045 17.3354 21.3629 17.201 21.6402 17.1219C21.898 17.0456 22.174 17.0583 22.4238 17.1579C22.6735 17.2574 22.8825 17.4381 23.0172 17.6708C23.3591 18.2292 23.3553 18.7724 22.9337 19.2054C22.2873 19.8591 21.5063 20.364 20.6449 20.685C19.8063 20.9863 18.9335 21.1822 18.0466 21.2681C18.1796 21.4144 18.2366 21.4847 18.3277 21.5682C19.53 22.7781 20.738 23.9823 21.9365 25.1941C22.1274 25.3677 22.2569 25.5985 22.3056 25.8519C22.3542 26.1053 22.3193 26.3677 22.2062 26.5996C22.091 26.8538 21.9035 27.0685 21.667 27.2168C21.4306 27.365 21.1557 27.4404 20.8767 27.4334C20.5503 27.4013 20.2482 27.2465 20.0314 27.0004C19.1236 26.0868 18.1986 25.1903 17.3097 24.2596C17.0514 23.9899 16.9298 24.0412 16.6981 24.2748C15.7845 25.2245 14.8557 26.1419 13.9231 27.0612C13.75 27.2531 13.518 27.382 13.2636 27.4277C13.0091 27.4735 12.7468 27.4334 12.5176 27.3138C12.2693 27.1978 12.0598 27.0126 11.9143 26.7805C11.7687 26.5483 11.6933 26.2791 11.6971 26.0051C11.7245 25.6665 11.8825 25.3518 12.1377 25.1276C13.3305 23.9386 14.5195 22.749 15.7047 21.5587C15.7845 21.4771 15.8605 21.3916 15.9725 21.27Z" fill="#1D2020"/>
<path d="M16.9584 17.1292C15.911 17.1231 14.889 16.8061 14.022 16.2183C13.155 15.6306 12.4822 14.7986 12.0887 13.8279C11.6952 12.8572 11.5989 11.7915 11.812 10.7659C12.025 9.74041 12.5378 8.80126 13.2854 8.06759C14.0329 7.33393 14.9815 6.8388 16.0109 6.64501C17.0402 6.45121 18.1039 6.56749 19.0671 6.97908C20.0302 7.39066 20.8495 8.07903 21.4209 8.95686C21.9923 9.8347 22.2901 10.8625 22.2766 11.9098C22.2575 13.3053 21.688 14.6368 20.6919 15.6143C19.6959 16.5919 18.354 17.1364 16.9584 17.1292ZM19.5852 11.8357C19.5837 11.3238 19.4303 10.8238 19.1444 10.399C18.8586 9.97428 18.4531 9.64391 17.9794 9.44973C17.5057 9.25556 16.985 9.2063 16.4833 9.30822C15.9816 9.41013 15.5214 9.65862 15.161 10.0222C14.8006 10.3858 14.5562 10.8482 14.4587 11.3508C14.3612 11.8534 14.415 12.3736 14.6134 12.8456C14.8117 13.3176 15.1457 13.7201 15.5729 14.0022C16.0002 14.2843 16.5015 14.4332 17.0135 14.4302C17.3529 14.4295 17.6888 14.3617 18.002 14.2308C18.3152 14.0998 18.5994 13.9083 18.8384 13.6673C19.0773 13.4262 19.2663 13.1403 19.3945 12.826C19.5226 12.5117 19.5874 12.1751 19.5852 11.8357Z" fill="#1D2020"/>
</g></symbol><symbol id="icon-tg" viewBox="0 0 36 36"><g fill="none">
<g clip-path="url(#clip0_1_3090)">
<path d="M36 18C36 8.05887 27.9411 0 18 0C8.05887 0 0 8.05887 0 18C0 27.9411 8.05887 36 18 36C27.9411 36 36 27.9411 36 18Z" fill="#419FD9"/>
<path d="M36 18C36 8.05887 27.9411 0 18 0C8.05887 0 0 8.05887 0 18C0 27.9411 8.05887 36 18 36C27.9411 36 36 27.9411 36 18Z" fill="white"/>
<path d="M8.09055 17.6031C13.325 15.2747 16.8154 13.7396 18.562 12.9978C23.5484 10.8802 24.5846 10.5123 25.26 10.5001C25.4085 10.4976 25.7406 10.5351 25.9558 10.7133C26.1374 10.8639 26.1874 11.0672 26.2113 11.2098C26.2352 11.3526 26.265 11.6776 26.2413 11.9316C25.9711 14.8305 24.8019 21.8654 24.207 25.1122C23.9553 26.4861 23.4597 26.9467 22.9799 26.9918C21.9372 27.0897 21.1453 26.2882 20.1355 25.6122C18.5551 24.5546 17.6623 23.8961 16.1283 22.864C14.3555 21.6712 15.5047 21.0156 16.5151 19.9442C16.7794 19.6638 21.3737 15.3971 21.4627 15.0101C21.4738 14.9616 21.4841 14.7812 21.3791 14.6859C21.2741 14.5907 21.1192 14.6232 21.0073 14.6491C20.8489 14.6859 18.3242 16.3896 13.4335 19.7604C12.7168 20.2629 12.0678 20.5076 11.4862 20.4948C10.8451 20.4807 9.61192 20.1247 8.69512 19.8204C7.57065 19.4472 6.6769 19.2499 6.75472 18.6161C6.79526 18.2859 7.24052 17.9483 8.09055 17.6031Z" fill="#1D2020"/>
</g>

</g></symbol><symbol id="icon-user" viewBox="0 0 18 20"><g fill="none">
<path d="M9 11C11.7614 11 14 8.76142 14 6C14 3.23858 11.7614 1 9 1C6.23858 1 4 3.23858 4 6C4 8.76142 6.23858 11 9 11ZM9 11C11.1217 11 13.1566 11.8429 14.6569 13.3431C16.1571 14.8434 17 16.8783 17 19M9 11C6.87827 11 4.84344 11.8429 3.34315 13.3431C1.84285 14.8434 1 16.8783 1 19" stroke="#222222" stroke-linecap="round" stroke-linejoin="round"/>
</g></symbol><symbol id="icon-vk" viewBox="0 0 36 36"><g fill="none">
<path fill-rule="evenodd" clip-rule="evenodd" d="M35.0896 23.2571V12.7858C35.0896 3.22129 32.8313 0.94573 23.264 0.94573C-0.132416 0.79561 0.789541 -0.155869 0.946501 23.2395C0.946501 32.8039 3.20478 35.0795 12.7721 35.0795H20.7134C30.8783 35.2548 35.3452 34.556 35.0896 23.2571ZM28.5103 25.3019H26.0205C25.078 25.3019 24.7936 24.5372 23.1041 22.8485C21.6281 21.4261 21.0057 21.2483 20.6324 21.2483C20.1165 21.2483 19.9743 21.3905 19.9743 22.1015V24.3414C19.9743 24.9458 19.7788 25.3015 18.1959 25.3015C15.5639 25.3015 12.6656 23.7013 10.6024 20.7504C7.50822 16.4304 6.6723 13.1591 6.6723 12.5014C6.6723 12.128 6.8145 11.79 7.52586 11.79H10.0156C10.6557 11.79 10.8868 12.0744 11.1359 12.7321C12.1565 16.078 15.6525 21.6454 15.7061 18.4388V14.7766C15.5996 13.1054 14.7104 12.9632 14.7104 12.3588C14.7104 12.092 14.9595 11.79 15.3505 11.79H19.2626C19.7961 11.79 19.9739 12.0568 19.9739 12.6965V17.6389C20.0416 18.824 20.7789 18.3578 21.5212 17.5856C23.3173 15.5945 24.5798 12.501 24.5798 12.501C24.74 12.1277 25.0244 11.79 25.6645 11.79H28.1542C28.9012 11.79 29.0611 12.1633 28.9012 12.6968C28.5988 14.1545 25.5579 18.4212 25.5579 18.4392C25.2911 18.8482 25.1846 19.0616 25.5579 19.5415C26.2747 20.4347 31.4975 25.1514 28.5103 25.3019Z" fill="white"/>
<path d="M28.5103 25.3019H26.0205C25.078 25.3019 24.7936 24.5372 23.1041 22.8485C21.6281 21.4261 21.0057 21.2483 20.6324 21.2483C20.1165 21.2483 19.9743 21.3905 19.9743 22.1015V24.3414C19.9743 24.9458 19.7788 25.3015 18.1959 25.3015C15.5639 25.3015 12.6656 23.7013 10.6024 20.7504C7.50822 16.4304 6.6723 13.1591 6.6723 12.5014C6.6723 12.128 6.8145 11.79 7.52586 11.79H10.0156C10.6557 11.79 10.8868 12.0744 11.1359 12.7321C12.1565 16.078 15.6525 21.6454 15.7061 18.4388V14.7766C15.5996 13.1054 14.7104 12.9632 14.7104 12.3588C14.7104 12.092 14.9595 11.79 15.3505 11.79H19.2626C19.7961 11.79 19.9739 12.0568 19.9739 12.6965V17.6389C20.0416 18.824 20.7789 18.3578 21.5212 17.5856C23.3173 15.5945 24.5798 12.501 24.5798 12.501C24.74 12.1277 25.0244 11.79 25.6645 11.79H28.1542C28.9012 11.79 29.0611 12.1633 28.9012 12.6968C28.5988 14.1545 25.5579 18.4212 25.5579 18.4392C25.2911 18.8482 25.1846 19.0616 25.5579 19.5415C26.2747 20.4347 31.4975 25.1514 28.5103 25.3019Z" fill="#3A3F3F"/>
</g></symbol><symbol id="icon-whatsapp" viewBox="0 0 36 36"><g fill="none">
<g clip-path="url(#clip0_1_3094)">
<path d="M18.0045 0H17.9955C8.07077 0 2.36181e-05 8.073 2.36181e-05 18C-0.00613936 21.7913 1.19398 25.4862 3.42677 28.5502L1.18352 35.2372L8.10227 33.0255C11.0371 34.9726 14.4825 36.0075 18.0045 36C27.9293 36 36 27.9247 36 18C36 8.07525 27.9293 0 18.0045 0Z" fill="white"/>
<path d="M28.4782 25.4179C28.044 26.6442 26.3205 27.6612 24.9457 27.9582C24.0052 28.1584 22.7767 28.3182 18.6412 26.6037C13.3515 24.4122 9.94499 19.0369 9.67949 18.6882C9.42524 18.3394 7.54199 15.8419 7.54199 13.2589C7.54199 10.6759 8.85374 9.41817 9.38249 8.87817C9.81674 8.43492 10.5345 8.23242 11.223 8.23242C11.4457 8.23242 11.646 8.24367 11.826 8.25267C12.3547 8.27517 12.6202 8.30667 12.969 9.14142C13.4032 10.1877 14.4607 12.7707 14.5867 13.0362C14.715 13.3017 14.8432 13.6617 14.6632 14.0104C14.4945 14.3704 14.346 14.5302 14.0805 14.8362C13.815 15.1422 13.563 15.3762 13.2975 15.7047C13.0545 15.9904 12.78 16.2964 13.086 16.8252C13.392 17.3427 14.4495 19.0684 16.0065 20.4544C18.0157 22.2432 19.6447 22.8147 20.2275 23.0577C20.6617 23.2377 21.1792 23.1949 21.4965 22.8574C21.8992 22.4232 22.3965 21.7032 22.9027 20.9944C23.2627 20.4859 23.7172 20.4229 24.1942 20.6029C24.6802 20.7717 27.252 22.0429 27.7807 22.3062C28.3095 22.5717 28.6582 22.6977 28.7865 22.9204C28.9125 23.1432 28.9125 24.1894 28.4782 25.4179Z" fill="#1D2020"/>
</g>

</g></symbol></svg>